<?xml version="1.0" encoding="UTF-8" standalone="no"?>
<!-- Created with Inkscape (http://www.inkscape.org/) -->

<svg
   xmlns:dc="http://purl.org/dc/elements/1.1/"
   xmlns:cc="http://creativecommons.org/ns#"
   xmlns:rdf="http://www.w3.org/1999/02/22-rdf-syntax-ns#"
   xmlns:svg="http://www.w3.org/2000/svg"
   xmlns="http://www.w3.org/2000/svg"
   xmlns:sodipodi="http://sodipodi.sourceforge.net/DTD/sodipodi-0.dtd"
   xmlns:inkscape="http://www.inkscape.org/namespaces/inkscape"
   id="svg3390"
   version="1.1"
   inkscape:version="0.91 r13725"
   width="287.10001"
   height="188.10001"
   viewBox="0 0 287.10001 188.10001"
   sodipodi:docname="pamv_carte.svg">
  <metadata
     id="metadata3396">
    <rdf:RDF>
      <cc:Work
         rdf:about="">
        <dc:format>image/svg+xml</dc:format>
        <dc:type
           rdf:resource="http://purl.org/dc/dcmitype/StillImage" />
        <dc:title></dc:title>
      </cc:Work>
    </rdf:RDF>
  </metadata>
  <defs
     id="defs3394" />
  <sodipodi:namedview
     pagecolor="#ffffff"
     bordercolor="#666666"
     borderopacity="1"
     objecttolerance="10"
     gridtolerance="10"
     guidetolerance="10"
     inkscape:pageopacity="0"
     inkscape:pageshadow="2"
     inkscape:window-width="1920"
     inkscape:window-height="1026"
     id="namedview3392"
     showgrid="false"
     showguides="false"
     inkscape:zoom="1.5751076"
     inkscape:cx="167.22788"
     inkscape:cy="105.98624"
     inkscape:window-x="0"
     inkscape:window-y="0"
     inkscape:window-maximized="1"
     inkscape:current-layer="svg3390"
     inkscape:snap-others="true" />
  <rect
     style="fill:#000000;fill-opacity:1;stroke:none;stroke-width:1.89999998;stroke-linecap:round;stroke-linejoin:round;stroke-miterlimit:4;stroke-dasharray:none;stroke-opacity:1"
     id="rect4472"
     width="287.10001"
     height="188.10001"
     x="0"
     y="0" />
  <g
     id="g3400"
     transform="translate(301.67829,-1.122311)" />
  <path
     style="fill:none"
     id="path3418"
     d="m -131.82836,67.188991 c 0.48699,-0.952793 0.92136,-1.929843 1.31582,-2.924129 0.28441,-0.811993 0.52862,-1.636961 0.849,-2.435655 0.34348,-0.89171 0.70438,-1.772061 1.07013,-2.65469 0.46695,-0.922503 0.82161,-1.89052 1.2095,-2.846124 0.42101,-0.916971 0.80226,-1.850305 1.20426,-2.775154 0.48931,-0.852692 0.74439,-1.798934 1.07577,-2.714971 0.36871,-0.974928 0.79498,-1.920848 1.25539,-2.855387 0.50566,-1.144154 1.00992,-2.286219 1.55784,-3.411234 0.61738,-1.214719 1.24915,-2.422213 1.85368,-3.643421 0.46536,-1.154211 1.05088,-2.254104 1.63862,-3.349295 0.63496,-1.205222 1.24091,-2.425237 1.86521,-3.635923 0.63771,-1.267296 1.26111,-2.541863 1.90656,-3.805258 0.58907,-1.231524 1.23916,-2.431992 1.89965,-3.626246 0.64378,-1.094591 1.3895,-2.119782 2.01132,-3.226869 0.45621,-0.901343 1.01261,-1.746368 1.52463,-2.616359 0.57609,-1.054929 1.23722,-2.059759 1.85226,-3.092164 0.68324,-1.063935 1.3878,-2.110275 2.05208,-3.185772 0.51767,-0.852798 1.13402,-1.642416 1.7519,-2.424197 0.75613,-0.919462 1.47625,-1.863692 2.11325,-2.869809 0.60787,-0.9343472 1.28188,-1.817424 1.886521,-2.7533021 0.605746,-0.9560161 1.260674,-1.878889 1.927343,-2.7930421 0.686279,-0.9557751 1.341756,-1.9329465 1.9805,-2.9211364 0.554812,-0.96755378 1.19272,-1.8819583 1.908628,-2.7363304 0.73995,-0.8912232 1.50777,-1.7572113 2.296886,-2.6052006 0.748381,-0.8354032 1.572904,-1.5956763 2.34726,-2.4069007 0.678149,-0.6982336 1.389237,-1.3592113 1.940759,-2.1649613 0.49734,-0.7526204 1.078037,-1.4409184 1.683109,-2.1077344 0.650756,-0.775039 1.23857,-1.592809 1.931081,-2.332219 0.456621,-0.46489 0.228126,-0.235433 0.68537,-0.688485 0,0 4.339909,-1.792755 4.339909,-1.792755 l 0,0 c -0.461153,0.44783 -0.229983,0.222025 -0.693467,0.677457 -0.713397,0.719844 -1.32685,1.494285 -1.934757,2.302679 -1.049856,1.310483 0.477774,-0.560535 -0.600666,0.646611 -0.399029,0.44665 -0.726467,0.9444 -1.113057,1.401937 -0.248501,0.424101 -0.502633,0.845303 -0.850118,1.1988149 -0.111488,0.113422 -0.247043,0.2014124 -0.358355,0.3150075 -1.006002,1.0266338 0.370082,-0.2435742 -0.708056,0.7279051 -0.735189,0.8579144 -1.611683,1.573382 -2.349389,2.4274734 -0.823464,0.8024758 -1.569026,1.6876591 -2.287555,2.5859211 -0.784125,0.7754137 -1.40441,1.7202495 -1.953774,2.6714676 -0.649741,0.98598773 -1.275518,1.98201863 -1.96918,2.9366665 -0.642449,0.9256827 -1.353827,1.8035343 -1.91881,2.7829993 -0.705957,0.9497099 0.130225,-0.2145249 -0.542697,0.860429 -0.410874,0.6563474 -0.985938,1.2039988 -1.37774,1.8766001 -0.602565,1.0379432 -1.325166,1.9840614 -2.060131,2.9304405 -0.683624,0.733166 0.01245,-0.05128 -0.611154,0.775321 -0.28976,0.384079 -0.62632,0.744486 -0.90262,1.138235 -0.10186,0.145153 -0.17933,0.30597 -0.269,0.458955 -0.72845,1.040861 0.11083,-0.197891 -0.5937,0.981023 -0.45157,0.755625 -1.04706,1.421241 -1.47771,2.192263 -0.2152,0.355891 -0.40984,0.723955 -0.62512,1.079804 -0.29891,0.49408 -0.65375,0.961458 -0.94583,1.458531 -0.10363,0.176373 -0.18331,0.365765 -0.27497,0.548648 -0.0988,0.164924 -0.19771,0.329848 -0.29656,0.494772 -0.0838,0.157522 -0.16033,0.319093 -0.2513,0.472566 -0.23633,0.39871 -0.53074,0.77368 -0.75889,1.175541 -0.0841,0.148125 -0.14247,0.309442 -0.21371,0.464164 -0.19179,0.326659 -0.35697,0.668545 -0.55083,0.993979 -0.45727,0.767614 -1.05741,1.445852 -1.48055,2.237335 -0.67711,1.182362 -1.32413,2.384955 -1.91118,3.614774 -0.66501,1.253226 -1.26932,2.538172 -1.90497,3.80622 -0.64145,1.200749 -1.2261,2.431062 -1.85262,3.639429 -0.60462,1.080754 -1.19236,2.183572 -1.65574,3.331284 -0.58224,1.228942 -1.22699,2.427771 -1.84679,3.637706 -0.53065,1.130834 -1.09495,2.244 -1.55061,3.408702 -0.43703,0.935188 -0.92112,1.845932 -1.25121,2.827391 -0.42584,0.880451 -0.5327,1.900549 -1.07248,2.739269 -0.46793,0.88657 -0.75106,1.867441 -1.20546,2.765198 -0.46188,0.90972 -0.67532,1.94072 -1.21837,2.81938 -0.15726,0.441913 -0.39003,0.830653 -0.56305,1.26066 -0.18397,0.457239 -0.24405,0.968426 -0.49942,1.400261 -0.32753,0.796914 -0.59781,1.60883 -0.86189,2.428994 -0.36411,1.011783 -0.83806,1.977222 -1.27507,2.958412 0,0 -4.29568,1.943498 -4.29568,1.943498 z"
     inkscape:connector-curvature="0" />
  <path
     style="fill:none"
     id="path3420"
     d="m -82.442726,-2.7137148 c -0.557161,0.9785319 -1.059277,1.99011929 -1.538294,3.009445 -0.495173,1.1408766 -1.175475,2.1828594 -1.732322,3.2910061 -0.627872,1.2563562 -1.17345,2.5511903 -1.862905,3.7757951 -0.731426,1.2309611 -1.383049,2.5078254 -2.107343,3.7423326 -0.640906,1.054928 -1.160996,2.179357 -1.685578,3.295412 -0.601337,1.251009 -1.22785,2.489627 -1.833947,3.738287 -0.66866,1.223121 -1.145609,2.534574 -1.705536,3.807865 -0.466069,1.145704 -0.948963,2.283677 -1.432316,3.422535 -0.410192,1.043871 -0.80836,2.092657 -1.269771,3.115716 -0.479459,1.01116 -0.923896,2.039134 -1.385452,3.058941 -0.420641,1.043918 -0.859028,2.084372 -1.36488,3.090372 -0.429,0.919778 -0.87986,1.826288 -1.28736,2.756662 -0.57643,1.168205 -1.0025,2.400323 -1.51671,3.595663 -0.55383,1.202892 -1.04472,2.432992 -1.60623,3.632179 -0.45167,1.13997 -0.9991,2.239015 -1.4392,3.383142 -0.40943,1.00326 -0.89828,1.970231 -1.33503,2.960682 -0.48883,1.140933 -1.02622,2.259377 -1.55428,3.382342 -0.47796,1.204658 -0.97677,2.401945 -1.60063,3.539046 -0.5632,1.066158 -1.19213,2.100428 -1.72102,3.18441 -0.58662,1.012121 -1.01018,2.104144 -1.53746,3.145485 -0.57281,0.99308 -0.97734,2.065397 -1.42335,3.116931 -0.43651,0.89737 -0.73853,1.848731 -1.08601,2.780925 -0.35691,0.737246 -0.59714,1.522239 -0.83767,2.303222 -0.0823,0.348307 -0.17188,0.694336 -0.26985,1.038522 0,0 -4.26037,2.020813 -4.26037,2.020813 l 0,0 c 0.10258,-0.344402 0.23474,-0.681183 0.273,-1.041337 0.22465,-0.800435 0.47609,-1.605783 0.82544,-2.358884 0.42946,-0.877424 0.62308,-1.924228 1.09404,-2.798998 0.5136,-1.02583 0.81745,-2.155104 1.41003,-3.147945 0.60033,-0.999217 0.9094,-2.144942 1.5606,-3.11982 0.48976,-1.114063 1.15803,-2.135342 1.69507,-3.225869 0.69894,-1.080304 1.16375,-2.303491 1.63052,-3.498239 0.50595,-1.122403 1.05947,-2.222049 1.54152,-3.355043 0.18636,-0.486981 0.44349,-0.907102 0.6587,-1.37664 0.23858,-0.52052 0.38465,-1.08895 0.70107,-1.575813 0.40807,-1.166217 0.98595,-2.258422 1.41515,-3.416511 0.16998,-0.362888 0.37063,-0.711358 0.53017,-1.078956 0.0917,-0.211392 0.15171,-0.435398 0.23816,-0.649013 0.26128,-0.64568 0.61844,-1.244912 0.85438,-1.901358 0.54011,-1.178868 0.92023,-2.421976 1.50522,-3.580253 0.19857,-0.492016 0.40565,-0.985636 0.62178,-1.469664 0.62524,-1.400218 -0.19081,0.520402 0.46003,-0.826658 0.0752,-0.155719 0.12366,-0.323024 0.18549,-0.484537 0.49955,-1.008924 1.00073,-2.01977 1.39009,-3.077625 0.44309,-1.029149 0.91611,-2.04495 1.35978,-3.072803 0.41775,-0.747797 0.0862,-0.09711 0.42298,-0.949676 0.28442,-0.720011 0.64962,-1.401099 0.86756,-2.148421 0.51189,-1.132434 0.976098,-2.283033 1.44346,-3.433865 0.588361,-1.263597 1.018544,-2.597585 1.702281,-3.816293 0.585672,-1.254755 1.229892,-2.48145 1.830475,-3.728944 0.506843,-1.137983 1.048911,-2.266848 1.662245,-3.350365 0.788267,-1.193304 1.370259,-2.516318 2.122383,-3.7340706 0.722131,-1.1967146 1.2475,-2.4881948 1.869413,-3.737329 0.513873,-1.1251659 1.21947,-2.1434139 1.72024,-3.2761956 0.233438,-0.525153 0.523893,-1.0113896 0.772106,-1.52661925 0.239409,-0.49695277 0.389925,-1.04199103 0.734458,-1.48648846 0,0 4.295673,-1.94349789 4.295673,-1.94349789 z"
     inkscape:connector-curvature="0" />
  <path
     style="fill:none"
     id="path3422"
     d="m -134.62856,24.909131 c 1.30788,-0.393758 2.59484,-0.857917 3.91126,-1.22378 0.82455,-0.377151 1.71692,-0.541092 2.57911,-0.795467 0.39287,-0.115909 0.77464,-0.266769 1.16481,-0.391481 1.2469,-0.324401 2.50815,-0.609139 3.73628,-1.001166 1.39123,-0.424909 2.81287,-0.759399 4.18885,-1.231418 1.44596,-0.445588 2.92293,-0.793429 4.35932,-1.268382 1.38863,-0.53123 2.8824,-0.577409 4.32254,-0.866286 0.98513,-0.260958 2.00744,-0.298399 3.00926,-0.446301 0.51998,-0.07677 1.03164,-0.202083 1.54807,-0.299937 0.79147,-0.190783 1.60977,-0.207067 2.41123,-0.322451 0.82849,-0.119275 1.65087,-0.309216 2.47868,-0.43927 1.704196,-0.158147 3.373861,-0.530142 5.070798,-0.74423 1.697525,-0.198606 3.408571,-0.220065 5.115465,-0.243845 1.649105,0.08965 3.269024,-0.227447 4.90055,-0.408672 1.594702,-0.169105 3.199179,-0.202553 4.801356,-0.222534 1.578201,0.194229 3.151123,0.408683 4.737704,0.524697 1.46889,-0.01018 2.9004,0.312462 4.348222,0.512499 0.662969,0.121514 1.343889,0.08984 2.010227,0.167391 0.698164,0.08126 1.396807,0.250747 2.089777,0.369309 0.224093,0.03231 0.450268,0.05251 0.672279,0.09692 0.01124,0.0022 1.311975,0.335947 1.334041,0.341266 0.632099,0.152367 1.250747,0.251598 1.869469,0.454232 0.507125,0.231781 1.070069,0.288039 1.596766,0.448004 0.489276,0.148601 0.958119,0.370394 1.448573,0.5226 0.166463,0.03863 0.336567,0.064 0.499387,0.115877 0.320149,0.102004 0.619202,0.262303 0.936326,0.373355 0.484435,0.169642 0.964753,0.262245 1.44128,0.45754 0.624805,0.191254 1.1988,0.458959 1.776607,0.760194 0,0 -3.930167,2.578798 -3.930167,2.578798 l 0,0 c -0.563323,-0.287455 -1.14377,-0.512787 -1.741412,-0.719301 -0.947259,-0.327674 -1.906951,-0.626905 -2.862206,-0.929204 -1.006968,-0.340363 -2.010562,-0.673751 -3.031728,-0.970535 -1.25585,-0.356181 -2.547306,-0.618627 -3.830551,-0.852276 -1.359257,-0.238226 -2.718674,-0.398857 -4.092473,-0.525763 -1.436576,-0.21523 -2.864901,-0.480861 -4.323099,-0.493811 -1.573339,-0.13444 -3.13339,-0.379702 -4.707905,-0.491967 -1.592985,0.02911 -3.187829,0.07315 -4.771857,0.258208 -1.638226,0.195721 -3.271722,0.448735 -4.928113,0.370908 -1.695409,0.0245 -3.39423,0.06465 -5.077798,0.284529 -1.690278,0.238439 -3.365558,0.571612 -5.063718,0.755414 -1.62838,0.273861 -3.25806,0.520477 -4.88904,0.775376 -1.51779,0.283028 -3.05467,0.43032 -4.56628,0.750063 -1.44229,0.238716 -2.90447,0.391917 -4.285,0.909849 -1.4512,0.431241 -2.91249,0.828491 -4.35945,1.27408 -1.39396,0.426246 -2.80031,0.811461 -4.19789,1.2257 -1.24374,0.351217 -2.49586,0.671149 -3.741,1.015866 -1.24461,0.401369 -2.51476,0.716253 -3.74309,1.169597 -1.31282,0.397168 -2.63124,0.79903 -3.90696,1.30126 0,0 3.6915,-2.925454 3.6915,-2.925454 z"
     inkscape:connector-curvature="0" />
  <path
     style="fill:none"
     id="path3424"
     d="m -115.60897,52.56586 c 0.75492,-1.245162 1.61546,-2.41799 2.51265,-3.562708 0.8632,-1.04341 1.59479,-2.185918 2.46168,-3.225008 0.80404,-0.989487 1.68186,-1.911692 2.50502,-2.886023 0.9613,-1.23504 2.13088,-2.26224 3.26447,-3.328828 0.96023,-0.872925 1.92642,-1.742 2.84138,-2.662805 0.84761,-0.846555 1.71728,-1.671761 2.550176,-2.53293 0.830138,-0.915817 1.853343,-1.613795 2.79982,-2.39931 1.015696,-0.745773 1.879946,-1.660506 2.758198,-2.556836 0.759126,-0.771131 1.490446,-1.564901 2.154285,-2.419941 0.726805,-0.947468 1.547426,-1.816513 2.280454,-2.758391 0.587056,-0.693359 1.146907,-1.40937 1.735766,-2.101141 0.363552,-0.471885 0.77274,-0.903183 1.22864,-1.285682 0.08498,-0.05953 0.165501,-0.125989 0.254927,-0.178601 1.430175,-0.841414 2.89565,-1.62386 4.30298,-2.502949 1.233899,-0.770756 -5.036867,2.914558 -3.782392,2.177763 1.433042,-0.841673 2.868639,-1.679361 4.318113,-2.49241 0.186913,-0.104844 0.401404,-0.154106 0.589072,-0.257593 0.722741,-0.18915 1.418976,-0.424203 2.108163,-0.711803 0.117216,-0.03203 0.239313,-0.04975 0.351648,-0.09608 0.117283,-0.04837 0.217974,-0.130502 0.332108,-0.18589 0.540868,-0.262478 1.138251,-0.447246 1.713692,-0.613996 0.161303,-0.039 0.327687,-0.061 0.483909,-0.116989 0.283432,-0.10157 0.537568,-0.274126 0.819422,-0.379993 0.423029,-0.158894 0.858571,-0.249597 1.2795,-0.41543 0.395745,-0.178635 0.840032,-0.173434 1.252081,-0.280525 0.469872,-0.12212 0.931587,-0.303025 1.402646,-0.429934 0.168913,-0.03428 0.340578,-0.05705 0.506738,-0.102851 0.34713,-0.09568 0.677383,-0.245278 1.021407,-0.351585 0.513037,-0.158532 1.037379,-0.250936 1.551234,-0.406908 0.845577,-0.283059 1.734645,-0.353708 2.618556,-0.402769 0.721279,-0.03486 1.426647,-0.206672 2.146255,-0.280132 0.635151,0.01716 1.233164,-0.133073 1.852496,-0.238007 0.89559,-0.03368 1.726309,-0.374304 2.601782,-0.546271 0.501436,-0.131072 1.036863,-0.07619 1.541663,-0.167542 0.451581,-0.08172 0.908258,-0.273622 1.356777,-0.382191 0.995104,-0.07397 1.887608,-0.508316 2.852944,-0.717766 0.523869,-0.13171 1.072456,-0.09315 1.601963,-0.169407 0.593115,-0.08542 1.187174,-0.257503 1.777083,-0.368373 0.621736,-0.147387 1.268865,-0.129292 1.896516,-0.224169 0.632354,-0.095588 1.263169,-0.2758732 1.891838,-0.397475 1.266417,-0.2326177 2.554359,-0.2847459 3.838439,-0.3174923 0.212284,-0.00314 0.42539,0.0095 0.636853,-0.00942 0.158173,-0.014149 1.097736,-0.1914098 1.248705,-0.2180036 0.635713,-0.1119834 1.27034,-0.198484 1.911646,-0.2706219 0.839314,-0.070417 0.425671,-0.039296 1.240881,-0.093996 0,0 -3.765863,2.7773888 -3.765863,2.7773888 l 0,0 c -0.802574,0.0611 -0.39499,0.02508 -1.222661,0.109081 -1.272932,0.165405 -2.533933,0.466632 -3.822614,0.464532 -1.270301,0.04541 -2.542809,0.121629 -3.791097,0.378155 -1.258972,0.254392 -2.521096,0.441464 -3.792127,0.62206 -1.12417,0.223604 -2.252698,0.376822 -3.38091,0.568733 -0.946554,0.261297 -1.873335,0.580135 -2.850227,0.719838 -0.960246,0.254484 -1.925541,0.3918 -2.907334,0.535978 -0.873347,0.207481 -1.732309,0.468834 -2.631025,0.547036 -0.619774,0.117089 -1.239895,0.165462 -1.86852,0.214184 -0.715717,0.09469 -1.425856,0.242751 -2.150318,0.254432 -0.866387,0.06928 -1.722255,0.201978 -2.551322,0.473114 -1.033747,0.265844 -2.045832,0.596763 -3.079672,0.860981 -0.880885,0.254533 -1.771142,0.468141 -2.644623,0.744138 -0.870099,0.277654 -1.704481,0.642731 -2.582953,0.892362 -0.810964,0.2819 -1.590425,0.632595 -2.391926,0.93808 -0.689055,0.272466 -1.42143,0.419515 -2.090714,0.740719 -0.194708,0.08476 -0.75976,0.378248 -0.576848,0.270369 1.246883,-0.735398 4.984638,-2.945883 3.751791,-2.18719 -14.098844,8.676425 2.43731,-1.802273 -0.778377,0.492091 -0.504197,0.297234 -0.913244,0.721465 -1.282423,1.170103 -0.563858,0.721436 -1.182801,1.405274 -1.778669,2.100036 -0.703625,0.964015 -1.516527,1.838607 -2.282595,2.752621 -0.623972,0.900938 -1.369837,1.695497 -2.117932,2.489215 -0.924667,0.857085 -1.711471,1.861577 -2.747323,2.599452 -0.645822,0.505753 -0.329291,0.237325 -0.947972,0.80719 -0.626206,0.509492 -1.349034,0.897766 -1.878156,1.526101 -0.397421,0.459842 -0.848538,0.830694 -1.26736,1.267211 -0.417461,0.435099 -0.807929,0.892109 -1.282123,1.27223 -0.421866,0.475135 -0.893268,0.857064 -1.34448,1.300782 -0.487772,0.479671 -0.956721,0.97291 -1.505271,1.389003 -1.09378,1.09474 -2.33763,2.028933 -3.27482,3.283028 -0.41744,0.494964 -0.81095,1.024223 -1.24955,1.500377 -0.43193,0.468898 -0.44943,0.387537 -0.85784,0.87048 -0.13984,0.165357 -0.26119,0.345493 -0.39179,0.51824 -0.90228,1.010228 -1.61592,2.155629 -2.4737,3.203883 -0.87338,1.134946 -1.806,2.233659 -2.49125,3.501385 0,0 -4.31159,1.90159 -4.31159,1.90159 z"
     inkscape:connector-curvature="0" />
  <path
     style="fill:none"
     id="path3426"
     d="m -83.759376,54.935751 c -0.308567,-1.137543 -0.643844,-2.27687 -1.125016,-3.354843 -0.339992,-0.658021 -0.58924,-1.350452 -0.879229,-2.028727 -0.43398,-0.941262 -0.85844,-1.879211 -1.208437,-2.856544 -0.318626,-0.898294 -0.606116,-1.826191 -0.988719,-2.700247 -0.403763,-0.964283 -0.700672,-1.977236 -0.9772,-2.985708 -0.451564,-1.034321 -0.751249,-2.12025 -1.094992,-3.192605 -0.362053,-1.242619 -0.766609,-2.472983 -1.184887,-3.698028 -0.403715,-1.33893 -0.886366,-2.656512 -1.436187,-3.942305 -0.53822,-1.414952 -1.068437,-2.834305 -1.59847,-4.253111 -0.648543,-1.453393 -1.196523,-2.941056 -1.731888,-4.437823 -0.51187,-1.486132 -1.097994,-2.946285 -1.713368,-4.392615 -0.636249,-1.490989 -1.244107,-2.994275 -1.88729,-4.482419 -0.619461,-1.546595 -1.258561,-3.0859501 -1.906501,-4.621001 -0.59279,-1.5090761 -1.28824,-2.9759888 -1.84102,-4.5007387 -0.56915,-1.3715429 -1.05469,-2.77349776 -1.57148,-4.16435396 -0.48555,-1.32995144 -0.89305,-2.68483034 -1.33022,-4.03056504 -0.40381,-1.3335055 -0.76579,-2.6814087 -1.10952,-4.0322212 -0.37634,-1.2825611 -0.8269,-2.5412401 -1.20857,-3.8217611 -0.38435,-1.246165 -0.37091,-2.555957 -0.5532,-3.833781 -0.26329,-1.26347 -0.42609,-2.54038 -0.51655,-3.826786 -0.0725,-1.272815 -0.0737,-2.548196 -0.0766,-3.822634 0.007,-1.216494 -0.069,-2.430306 0.15402,-3.631138 0.15804,-0.951628 0.47004,-1.859275 0.84567,-2.744579 0.47904,-0.989001 1.01448,-1.950302 1.67664,-2.828339 0.70881,-1.020304 1.63712,-1.828721 2.56467,-2.640179 2.27724,-1.817598 4.918162,-3.107986 7.442763,-4.540163 1.20984,-0.588554 2.330613,-1.333466 3.584774,-1.829913 1.278184,-0.350954 2.47609,-0.922986 3.737597,-1.322358 1.25747,-0.472168 2.519572,-0.950007 3.812168,-1.319474 0.813053,-0.380654 1.691162,-0.547389 2.549521,-0.778169 0.424826,-0.114219 0.839776,-0.262602 1.262006,-0.386075 1.251835,-0.355785 2.550273,-0.449881 3.843782,-0.50562 1.332058,-0.273266 2.677371,-0.455042 4.032063,-0.563662 1.30121,-0.08786 2.605964,-0.09285 3.909533,-0.09765 1.271935,0.255614 2.57911,0.338992 3.83992,0.639129 0.2237,0.05061 0.450225,0.09004 0.671099,0.151831 0.467798,0.130859 0.920196,0.312145 1.385211,0.452575 0.671409,0.202759 1.350759,0.344927 2.019919,0.556227 1.342011,0.44866 2.671301,0.933873 4.014191,1.384857 1.36697,0.608594 2.778628,1.09903 4.168144,1.648346 1.395035,0.536606 2.788932,1.089483 4.141426,1.72839 1.328283,0.600711 2.65155,1.219793 3.943028,1.897137 1.300075,0.669408 2.637388,1.261603 3.951046,1.902749 1.384664,0.561689 2.675718,1.300774 3.979886,2.020619 1.308758,0.7712 2.54422,1.657924 3.828404,2.467185 1.152584,0.795178 2.255939,1.643131 3.305611,2.570263 0.851103,0.773144 1.648971,1.617972 2.320626,2.552757 0,0 -4.040497,2.381996 -4.040497,2.381996 l 0,0 c -0.633389,-0.915485 -1.395446,-1.743141 -2.233927,-2.474734 -1.043564,-0.899244 -2.143771,-1.718197 -3.269799,-2.511163 -1.266402,-0.821911 -2.509687,-1.681772 -3.814855,-2.442415 -1.290741,-0.726859 -2.598519,-1.414265 -3.961613,-1.999012 -1.325464,-0.628093 -2.658583,-1.239179 -3.963163,-1.910611 -1.294273,-0.657912 -2.603391,-1.288454 -3.927743,-1.883362 -1.354813,-0.615596 -2.736314,-1.173088 -4.126758,-1.702316 -1.392303,-0.529318 -2.77865,-1.069103 -4.15855,-1.630819 -1.336197,-0.458425 -2.666703,-0.932813 -4.009329,-1.369298 -1.348692,-0.389854 -2.696977,-0.791939 -4.059643,-1.12553 -1.249934,-0.238787 -2.518606,-0.415434 -3.782401,-0.555731 -1.294891,0.0083 -2.591293,0.01922 -3.882652,0.125517 -1.35782,0.128586 -2.696738,0.36668 -4.046519,0.553453 -1.275052,0.07591 -2.54929,0.209391 -3.774941,0.591112 -1.274229,0.376844 -2.567294,0.686877 -3.809396,1.16663 -1.280026,0.406491 -2.543001,0.867386 -3.80356,1.330072 -1.243749,0.436829 -2.46427,0.938302 -3.716304,1.353282 -1.216326,0.555087 -2.352993,1.263075 -3.546468,1.864635 -1.51235,0.840564 -2.20956,1.23385 2.76326,-1.631358 0.201177,-0.115913 -0.393005,0.247387 -0.591699,0.367505 -0.572223,0.345934 -1.127213,0.706161 -1.659031,1.113756 -0.91343,0.803974 -1.89651,1.545765 -2.58395,2.566343 -0.72288,0.802001 -1.22204,1.761771 -1.70545,2.720942 -0.45669,0.811729 -0.708,1.737659 -0.89976,2.643635 -0.068,0.27821 -0.18886,0.72927 -0.21202,1.011037 -0.0691,0.840687 0.0495,1.696874 -0.003,2.538881 0.002,1.26544 4.6e-4,2.531644 0.0627,3.795897 0.0795,1.274314 0.22447,2.541626 0.4968,3.790836 0.20969,1.254754 0.15661,2.548733 0.5217,3.780853 0.3732,1.289613 0.83378,2.551805 1.21667,3.838909 0.33041,1.3434455 0.70011,2.6783529 1.08588,4.0060754 0.44738,1.3360475 0.8438,2.688505 1.32077,4.0150597 0.52272,1.3913295 0.996871,2.80012567 1.572068,4.1723408 0.532073,1.52343 1.234925,2.9778861 1.81709,4.4819961 0.65608,1.5302861 1.284705,3.0728309 1.906561,4.617142 0.647632,1.486664 1.257284,2.989868 1.890915,4.482316 0.629068,1.450372 1.213745,2.922239 1.727085,4.417225 0.539668,1.492921 1.075436,2.982907 1.733549,4.430302 0.527579,1.411538 1.062378,2.820557 1.58963,4.231591 0.562158,1.292603 1.061492,2.617867 1.463954,3.968822 0.417853,1.227503 0.833327,2.456434 1.196449,3.700846 0.348395,1.078236 0.656122,2.168435 1.106292,3.21074 0.266493,0.986516 0.577447,1.968937 0.962256,2.914213 0.18796,0.42514 0.303315,0.85827 0.471552,1.29078 0.01806,0.04643 0.374089,0.912941 0.383823,0.94164 0.05611,0.165426 0.09235,0.336938 0.138527,0.505408 0.33701,0.969542 0.761577,1.893007 1.207559,2.815328 0.306246,0.671118 0.545552,1.371311 0.869575,2.036991 0.46899,1.0974 0.793112,2.249322 1.161033,3.38314 0,0 -4.127464,2.273174 -4.127464,2.273174 z"
     inkscape:connector-curvature="0" />
  <path
     style="fill:none"
     id="path3428"
     d="m -42.445457,76.011068 c -0.554031,1.096913 -0.780488,2.311384 -1.182579,3.465082 -0.318067,0.864055 -0.55543,1.755086 -0.869403,2.620084 -0.858266,2.182381 -2.887224,2.513199 -5.073579,3.785058 -0.545956,0.177919 -0.96407,0.32575 -1.546872,0.391865 -0.09726,0.0072 -0.196049,0.0029 -0.291779,0.02151 -0.08358,0.01626 -0.161226,0.05486 -0.241839,0.08229 -0.09559,0.02151 -0.190343,0.04715 -0.28677,0.06453 -0.364461,0.06568 -0.736423,0.09526 -1.104746,0.128969 -0.933989,0.07505 -1.892911,-0.0074 -2.796269,-0.252384 -1.161862,-0.263915 -2.296446,-0.617695 -3.45231,-0.90506 -1.275021,-0.398964 -2.526536,-0.87723 -3.817207,-1.223223 -1.377161,-0.435503 -2.744092,-0.91147 -4.143589,-1.271391 -1.455111,-0.429819 -2.85403,-1.008711 -4.260518,-1.570863 -1.479628,-0.624648 -2.944971,-1.28679 -4.438073,-1.878388 -1.567713,-0.642834 -3.110541,-1.337891 -4.620212,-2.108831 -1.509209,-0.927952 -3.065488,-1.760736 -4.641261,-2.568454 -1.584101,-0.827595 -3.137162,-1.689388 -4.628427,-2.677053 -1.547093,-1.053505 -3.139288,-2.031908 -4.653875,-3.135373 -1.544122,-0.930889 -2.960409,-2.050658 -4.468096,-3.033944 -1.542529,-0.958389 -2.986959,-2.049694 -4.366229,-3.228008 -1.44247,-1.195003 -2.82482,-2.458539 -4.18253,-3.748183 -1.3666,-1.265081 -2.60448,-2.657192 -3.87313,-4.017942 -1.31859,-1.281875 -2.35501,-2.801157 -3.43981,-4.275153 -1.11213,-1.47343 -2.18759,-2.976201 -3.11917,-4.571169 -0.89704,-1.479124 -1.53155,-3.094428 -2.32625,-4.626915 -0.78135,-1.538377 -1.45062,-3.127047 -2.14887,-4.703515 -0.66202,-1.532191 -1.2431,-3.091338 -1.76019,-4.678 -0.46912,-1.534447 -0.91067,-3.065016 -1.15939,-4.651808 -0.34117,-1.520992 -0.60281,-3.050329 -0.7378,-4.603218 -0.11136,-1.510586 -0.11978,-3.026234 -0.12342,-4.540152 0.0508,-1.489296 0.44337,-2.920543 0.78634,-4.359464 0.41706,-1.416242 0.81203,-2.839032 1.31733,-4.2269532 0.50673,-1.4670412 1.27547,-2.8219899 1.97102,-4.2040437 0.77306,-1.3874995 1.49265,-2.8135866 2.43093,-4.0988695 1.06077,-1.25071705 2.28617,-2.34923538 3.46945,-3.4812085 1.11603,-1.1870758 2.4605,-2.0959265 3.78869,-3.0204275 1.302,-0.9260835 2.58509,-1.8815389 3.90508,-2.781895 2.53552,-1.8174479 5.28224,-3.2588646 8.00414,-4.7799556 1.283833,-0.576652 2.548865,-1.195551 3.83597,-1.765277 1.285834,-0.521291 2.590275,-0.984157 3.911903,-1.408275 1.389725,-0.41821 2.84297,-0.519901 4.284561,-0.58548 1.309236,-0.04289 2.619429,-0.03484 3.929161,-0.03189 1.301218,-0.05427 2.597542,0.149231 3.843678,0.516476 1.364752,0.358522 2.705698,0.778747 3.969348,1.411722 1.441392,0.676862 2.770387,1.560208 4.200302,2.259961 1.617749,0.754935 3.064671,1.784499 4.440074,2.9104982 1.421312,1.0013322 2.823489,2.0307368 4.198326,3.0955929 1.446634,1.1617954 2.777233,2.4591495 4.1052,3.7524246 1.374393,1.335144 2.642451,2.77439154 3.901733,4.2169938 1.305176,1.4347318 2.562223,2.9107259 3.811378,4.3940725 1.284598,1.4772832 2.431885,3.0544848 3.535233,4.668869 1.089123,1.645491 2.262784,3.23288 3.47177,4.791717 1.203971,1.57825 2.267046,3.27065 3.26641,4.985554 0.948332,1.637882 1.858436,3.298839 2.702497,4.993109 0.864996,1.574337 1.643518,3.191561 2.440474,4.800402 0.723508,1.469939 1.323757,2.994863 1.993745,4.488545 0.623721,1.459286 1.05825,2.985473 1.550689,4.490569 0.07621,0.251502 0.146349,0.504927 0.228642,0.754506 0.16775,0.508755 0.355542,0.955374 0.521681,1.464588 0.239762,0.734862 0.403307,1.490505 0.614287,2.233728 0.353688,1.359479 0.71754,2.718202 1.034434,4.087097 0.291306,1.436195 0.371583,2.901317 0.420147,4.362226 0.03166,1.302348 0.0263,2.605217 0.02436,3.90784 -0.08992,1.334554 -0.401008,2.63056 -0.853754,3.884817 -0.536868,1.358487 -1.131745,2.696113 -1.752588,4.018557 -0.579611,1.376267 -1.381298,2.639197 -2.10432,3.94115 -0.669218,1.225717 -1.536067,2.332797 -2.431922,3.399464 -1.005134,1.227445 -2.201161,2.266452 -3.457186,3.226834 -1.280598,0.93387 -2.548708,1.881825 -3.846409,2.792194 -1.360148,1.00415 -2.801451,1.891571 -4.244258,2.770413 -1.473576,0.96356 -2.996076,1.847533 -4.467011,2.815218 -2.809185,1.77491 -5.736477,3.351098 -8.610588,5.016528 7.333046,-4.236459 0.205678,-0.0067 -2.369139,1.389031 -0.765101,0.41475 -1.543726,0.789658 -2.299233,1.22346 -1.615359,0.809899 -3.239015,1.603914 -4.821655,2.476896 -1.607908,0.833182 -3.287157,1.506167 -4.937488,2.246152 -1.630121,0.746788 -3.230568,1.547651 -4.81496,2.387867 -1.498508,0.846757 -3.027875,1.637783 -4.598679,2.342008 -1.477235,0.6722 -2.95842,1.33589 -4.46002,1.95268 -1.435163,0.66019 -2.900919,1.23996 -4.292752,1.99186 -1.412134,0.67177 -2.8556,1.27859 -4.309498,1.85514 -1.309583,0.59613 -2.647093,1.15582 -4.024223,1.57773 -1.26415,0.45617 -2.52871,0.92724 -3.82321,1.2923 -1.26382,0.43458 -2.51971,0.90335 -3.80676,1.26641 -1.26452,0.43552 -2.52104,0.90541 -3.80889,1.26919 -0.65496,0.10219 -1.26781,0.35645 -1.90506,0.52766 -0.21218,0.057 -0.43126,0.0888 -0.64022,0.1567 -0.36851,0.11973 -0.71635,0.29569 -1.07689,0.43762 -0.34097,0.1722 -0.72806,0.18526 -1.08395,0.30437 -0.32169,0.10767 -0.61833,0.28145 -0.93837,0.39393 -0.99938,0.35122 0.0189,-0.0704 -0.99001,0.36902 -1.09272,0.4093 -2.21786,0.725 -3.36631,0.93035 0,0 3.73869,-2.82709 3.73869,-2.82709 l 0,0 c 1.12968,-0.23587 2.2392,-0.56873 3.30957,-1.00175 0.99765,-0.37713 1.99869,-0.7379 3.01529,-1.05949 1.18352,-0.44881 2.41327,-0.75742 3.63485,-1.08461 1.27726,-0.39923 2.53832,-0.84954 3.80902,-1.26908 1.27647,-0.39843 2.53693,-0.84743 3.80673,-1.26653 1.28191,-0.40095 2.54839,-0.85197 3.814438,-1.29995 1.356735,-0.46426 2.684684,-1.0124 3.994091,-1.59601 1.440215,-0.59306 2.888295,-1.17696 4.275525,-1.88739 1.41005,-0.72041 2.878812,-1.310157 4.320986,-1.962171 1.491243,-0.634584 2.978699,-1.279079 4.447852,-1.963308 1.553802,-0.729501 3.077822,-1.51783 4.576465,-2.354984 1.595419,-0.822632 3.194306,-1.633495 4.834626,-2.363946 1.654756,-0.716693 3.311643,-1.429794 4.908054,-2.27189 1.594239,-0.854719 3.219931,-1.648976 4.823233,-2.486424 0.759547,-0.417596 1.534677,-0.804812 2.293485,-1.223496 0.26428,-0.14582 1.047083,-0.601071 0.786875,-0.448103 -0.528551,0.310716 -10.557871,6.158859 1.580566,-0.940748 1.380701,-0.787636 4.681417,-2.613194 -1.604947,0.97674 -0.261784,0.149496 0.507314,-0.325915 0.764768,-0.48275 0.255185,-0.155454 0.51578,-0.301855 0.772953,-0.453998 0.252754,-0.149529 0.504548,-0.300676 0.756822,-0.451015 1.460872,-0.981885 2.983574,-1.855367 4.45009,-2.827145 1.436115,-0.884885 2.901106,-1.733113 4.254353,-2.743636 1.296843,-0.907729 2.571713,-1.838534 3.843491,-2.780273 1.280504,-0.899944 2.475976,-1.931698 3.493084,-3.124579 0.899788,-1.040675 1.770075,-2.126567 2.470326,-3.310776 0.699156,-1.311071 1.543786,-2.545808 2.117364,-3.921274 0.640065,-1.301294 1.202199,-2.641665 1.758886,-3.979203 0.486089,-1.197293 0.776236,-2.445214 0.922923,-3.729532 0.0029,-1.299315 0.0099,-2.598773 -0.01178,-3.897972 -0.03603,-1.432989 -0.09394,-2.872124 -0.375457,-4.281882 -0.311704,-1.362969 -0.681537,-2.711861 -1.015821,-4.069107 -0.21238,-0.734142 -0.365009,-1.482393 -0.598973,-2.210123 -0.332155,-1.033147 -0.180252,-0.432932 -0.530779,-1.483741 -0.08196,-0.245699 -0.149918,-0.495847 -0.224878,-0.743771 -0.492943,-1.488388 -0.90692,-3.004874 -1.522073,-4.451114 -0.66895,-1.488218 -1.267656,-3.007596 -1.980243,-4.476662 -0.792719,-1.610884 -1.563521,-3.231584 -2.430933,-4.804783 -0.834086,-1.688095 -1.744939,-3.337973 -2.683994,-4.969555 -0.978088,-1.702652 -2.042522,-3.371631 -3.229947,-4.934936 -1.21202,-1.568236 -2.394393,-3.160272 -3.493777,-4.810146 -1.097223,-1.599905 -2.220426,-3.175246 -3.505754,-4.6328034 -1.247267,-1.481518 -2.511825,-2.9474896 -3.808838,-4.3858393 -1.252206,-1.4330229 -2.51839,-2.8576383 -3.885581,-4.18305096 -1.316928,-1.28236124 -2.640507,-2.56400084 -4.088393,-3.70011114 -1.3807,-1.0615394 -2.783029,-2.0944263 -4.197648,-3.10991 -1.361378,-1.0988115 -2.798985,-2.0856843 -4.395191,-2.8182961 -1.416651,-0.7217241 -2.76017,-1.5792351 -4.202769,-2.2506071 -1.261355,-0.584255 -2.591239,-0.976434 -3.933274,-1.331817 -1.238512,-0.303604 -2.496552,-0.480372 -3.775086,-0.414994 -1.302923,-0.0022 -2.606597,-0.0093 -3.908591,0.04813 -1.421655,0.08367 -2.848608,0.221573 -4.206147,0.681663 -1.310398,0.442134 -2.614386,0.898406 -3.883812,1.449904 -1.27551,0.591263 -2.55689,1.16987 -3.828,1.7702496 7.123294,-4.2096966 1.50334,-0.9726186 -0.0281,0.1825958 -1.34269,0.859113 -2.59832,1.8544186 -3.90432,2.766726 -1.31385,0.936584 -2.7137,1.7700674 -3.82557,2.9598192 -1.17249,1.1262948 -2.375,2.2246438 -3.48472,3.41373301 -1.00651,1.21931271 -1.66537,2.65993359 -2.46801,4.01401319 -0.67648,1.3794568 -1.47251,2.7087178 -1.98766,4.1609428 -0.53634,1.3614402 -0.8875,2.7805584 -1.34149,4.1702324 -0.32469,1.414117 -0.74373,2.805483 -0.83682,4.263353 0.006,1.50306 0.004,3.007542 0.10318,4.50811 0.12629,1.543519 0.36364,3.068415 0.72489,4.57566 0.22629,1.567525 0.65643,3.074717 1.1169,4.587798 0.50876,1.572822 1.0788,3.119788 1.73223,4.638568 0.69569,1.567107 1.35646,3.149021 2.13472,4.67834 0.79506,1.524542 1.42084,3.135041 2.3103,4.610323 0.91996,1.582073 1.98636,3.07258 3.0925,4.529184 1.07564,1.459043 2.10327,2.962149 3.40961,4.231138 1.26094,1.355515 2.49976,2.733986 3.85973,3.992776 1.35234,1.283796 2.72953,2.541381 4.170661,3.725708 1.371607,1.16162 2.813083,2.226484 4.338264,3.179976 1.497986,1.007646 2.946172,2.088173 4.473162,3.05366 1.514519,1.09037 3.102497,2.064621 4.641995,3.117253 1.488491,0.964815 3.040351,1.804575 4.60913,2.63037 1.576772,0.805361 3.11295,1.675073 4.64309,2.564578 1.506336,0.753929 3.040144,1.442824 4.60202,2.073375 1.488113,0.609062 2.961547,1.254158 4.445376,1.873897 1.388748,0.566 2.786665,1.109577 4.23049,1.522001 1.395021,0.385219 2.767288,0.848368 4.150633,1.273054 1.282584,0.371675 2.537745,0.832821 3.819194,1.209926 1.150749,0.30413 2.296227,0.621008 3.456544,0.887996 0.897464,0.167108 1.813607,0.233859 2.72224,0.112092 0.646872,-0.08159 1.276147,-0.237091 1.921247,-0.326051 0.503837,-0.109169 0.991326,-0.290059 1.454667,-0.514058 -1.268167,0.745943 -2.537326,1.490201 -3.804499,2.237828 -0.07301,0.04308 0.153583,-0.07403 0.22196,-0.124145 0.312202,-0.228806 0.516731,-0.622976 0.699576,-0.95067 0.332595,-0.864389 0.595784,-1.749797 0.900098,-2.625481 0.131565,-0.365193 0.292427,-0.720462 0.403018,-1.092544 0.238605,-0.802783 0.366765,-1.644983 0.725976,-2.411548 0,0 4.295674,-1.943498 4.295674,-1.943498 z"
     inkscape:connector-curvature="0" />
  <path
     style="fill:none"
     id="path3430"
     d="m -125.68961,71.415061 c -0.51146,-1.673132 -1.11133,-3.319258 -1.767,-4.94097 -0.62611,-1.638483 -1.27732,-3.26773 -1.96472,-4.881764 -0.64173,-1.509524 -1.06355,-3.096573 -1.55898,-4.656217 -0.49912,-1.543269 -0.98803,-3.089307 -1.4655,-4.640085 -0.5493,-1.534593 -0.9952,-3.102502 -1.5401,-4.638514 -0.56114,-1.536422 -0.9828,-3.115682 -1.4371,-4.685017 -0.49287,-1.583986 -0.72846,-3.219089 -0.85007,-4.867987 -0.0913,-1.582453 -0.0869,-3.168501 -0.0855,-4.753 0.002,-1.58645 0.005,-3.172903 0.008,-4.759353 0.0732,-1.616221 0.50066,-3.185718 0.94957,-4.731492 0.44921,-1.649106 1.15577,-3.217425 1.93543,-4.733915 1.00502,-1.818422 2.2151,-3.513231 3.45452,-5.177048 1.25815,-1.690907 2.65058,-3.262929 4.127,-4.7638242 1.51872,-1.5049914 3.16714,-2.8676763 4.80933,-4.2335146 1.73704,-1.4669944 3.57904,-2.8002374 5.43937,-4.10452678 3.32092,-2.35657632 6.87215,-4.37862272 10.55739,-6.10683932 2.92325,-1.4138967 6.036808,-2.3477354 9.101041,-3.3961719 3.13764,-1.1142469 6.342394,-2.0276462 9.550507,-2.9138062 3.144658,-0.926415 6.332572,-1.705243 9.540774,-2.377475 3.179591,-0.5268 6.341814,-1.154497 9.533475,-1.605273 3.163814,-0.40633 6.355984,-0.473515 9.541178,-0.519692 2.645431,-0.02583 5.290964,-0.03321 7.936502,-0.03492 1.888942,-0.07532 14.214422,-33.331329 16.005953,-32.769964 1.64123,0.497693 151.48161,32.243312 208.59908,25.322531 73.7138,0.907207 -237.786379,-25.107642 -228.271108,-5.575178 1.074633,1.032741 23.791626,23.2410113 24.509632,24.5373053 0.69096,1.2514915 1.34137,2.5271085 1.959115,3.81650842 0.590419,1.41215613 1.160834,2.83070238 1.735053,4.24922188 0.620887,1.3808619 1.049854,2.822385 1.499663,4.2628173 0.375406,1.4278789 0.836802,2.8294721 1.135708,4.2764601 0.262901,1.560204 0.602159,3.100146 0.778143,4.674507 0.163677,1.643611 0.174577,3.296613 0.189211,4.946654 0.0065,1.657458 -0.229807,3.318672 -0.51836,4.949015 -0.34198,1.672354 -0.830277,3.313449 -1.296192,4.95528 -0.495195,1.760606 -1.209154,3.439185 -1.925389,5.117799 -0.769148,1.757476 -1.666705,3.444851 -2.580631,5.129134 -0.900987,1.76203 -1.978884,3.421054 -3.106106,5.044441 -1.232071,1.757476 -2.500196,3.485857 -3.829193,5.171048 -1.351057,1.718115 -2.821996,3.335746 -4.297481,4.946386 -1.548799,1.62622 -3.097908,3.253525 -4.73504,4.791485 -1.686293,1.55741 -3.410795,3.072575 -5.187127,4.526412 -1.818128,1.452375 -3.740928,2.764848 -5.61632,4.140745 -1.78949,1.363043 -3.777104,2.430942 -5.703921,3.582112 -0.318027,0.194136 -0.632134,0.394843 -0.954079,0.582408 -1.615588,0.941243 -3.236577,1.873201 -4.858276,2.803876 -0.298606,0.171367 -0.602462,0.33343 -0.902545,0.502198 -0.300145,0.168804 -1.196229,0.682882 -0.898119,0.510509 3.700608,-2.139762 5.596086,-3.191235 -1.824144,0.995314 -1.855667,0.991609 -3.75139,1.899055 -5.627096,2.851105 -1.857025,0.899421 -3.801852,1.58096 -5.730227,2.304443 -1.795309,0.613024 -3.552589,1.336295 -5.381101,1.847391 -1.647341,0.440841 -3.290891,0.823163 -4.986064,1.022994 -1.574754,0.151243 -3.157651,0.162035 -4.738144,0.171756 -1.513081,0.05636 -2.981771,-0.334945 -4.372172,-0.89884 -1.4431,-0.465241 -2.60593,-1.328569 -3.57435,-2.473989 -0.59734,-0.778562 -1.22057,-1.543757 -1.64524,-2.435563 -0.19326,-0.405834 -0.3494,-0.828389 -0.53225,-1.239017 -0.47431,-1.180609 -0.82404,-2.417097 -1.12393,-3.653617 -0.28202,-1.428411 -0.64241,-2.839747 -1.02243,-4.244878 -0.41601,-1.5419 -0.84121,-3.070042 -1.0746,-4.652359 -0.20646,-1.632753 -0.21804,-3.28167 -0.22967,-4.924885 0.017,-1.695943 -0.0642,-3.395509 0.0695,-5.087288 0.14186,-1.818273 0.75197,-3.543797 1.2228,-5.291916 0.50217,-1.738171 1.02167,-3.472517 1.72204,-5.14223 0.71899,-1.731077 1.52177,-3.429827 2.3823,-5.095091 0.9248,-1.774094 2.13128,-3.371154 3.26338,-5.012503 1.04956,-1.61443 2.141559,-3.200581 3.339671,-4.708483 1.311698,-1.555693 2.736966,-3.013232 4.202391,-4.423603 1.487955,-1.434057 3.101212,-2.725554 4.715118,-4.012525 1.806455,-1.436024 3.610462,-2.868135 5.572456,-4.086343 2.979608,-1.796836 6.031513,-3.52008 9.272728,-4.809423 0.802313,-0.319158 2.243117,-0.798047 3.057403,-1.075258 3.129324,-1.122378 6.338913,-1.988666 9.502186,-3.006514 3.149107,-1.137932 6.362073,-2.0794772 9.537729,-3.1384542 3.163436,-0.9480776 6.323558,-1.900854 9.538493,-2.6601775 3.168915,-0.6352288 6.358997,-1.1551212 9.529794,-1.7796143 2.787876,-0.5508516 5.614074,-0.8608516 8.448725,-1.0257343 1.919888,0.025846 3.810026,-0.2929256 5.7124,-0.4958679 1.610676,-0.2229691 3.233558,-0.0804 4.811852,0.2804714 1.48272,0.2803871 2.89237,0.7995865 4.3058451,1.3113162 1.3679629,0.5874548 2.7369627,1.1718627 4.0134933,1.9420755 1.3096385,0.6360076 2.3149991,1.6572037 3.2221119,2.7687186 0.8519872,1.1592365 1.4880784,2.4496415 2.16031964,3.7153705 0.63037977,1.233932 1.07059825,2.548608 1.55377366,3.84308 0.4827255,1.374739 0.9955558,2.738139 1.4622374,4.118836 0.4272037,1.455115 0.730372,2.943372 1.1251885,4.406857 0.5121472,1.599519 0.6071557,3.276724 0.8578091,4.924047 0.236603,1.712535 0.5568635,3.408713 0.8502639,5.111786 0.2157755,1.677224 0.4723601,3.349531 0.8498649,4.998915 0.3632699,1.667327 0.7161038,3.337728 1.0430475,5.012864 0.2971267,1.643045 0.342601,3.310529 0.5957834,4.959637 0.2654884,1.61383 0.3799182,3.24515 0.4465756,4.877458 0.065603,1.031589 -0.00391,2.069189 0.043843,3.100693 0.015969,0.344967 0.1278642,1.273586 0.163465,1.587125 0.2136942,1.591162 0.3509845,3.189874 0.4263823,4.793109 0.051484,1.311495 0.052326,2.624221 0.053721,3.936506 -3.664e-4,1.267294 -0.00231,2.534587 -0.00329,3.80188 -0.03662,1.203989 0.071796,2.415356 -0.053774,3.614523 -0.17196,1.067197 -0.5089211,2.095658 -1.0024716,3.055512 -0.4952747,0.837679 -1.2511283,1.382634 -2.0354071,1.917764 -2.2256349,1.352271 -4.325766,2.6989 -6.7922152,3.436624 -1.1735455,0.210351 -2.3086594,0.563287 -3.484911,0.766817 -0.2102747,0.02721 -0.422535,0.04198 -0.630824,0.08161 -0.4212127,0.08016 -0.8304006,0.214584 -1.248616,0.309144 -0.6363892,0.14389 -1.2730945,0.240817 -1.9197405,0.323371 -1.3934451,0.05548 -2.7494138,0.376459 -4.1290258,0.558785 -1.605259,0.183059 -3.222251,0.199025 -4.835813,0.214954 -1.883639,0.0096 -3.767342,0.0079 -5.650985,2.92e-4 -2.695321,-0.01424 -5.390673,-0.01945 -8.086025,-0.02297 -3.152218,-0.0032 -6.304438,-0.0032 -9.456658,-0.0033 -3.191893,-0.156939 -6.376589,-0.388201 -9.554616,-0.719821 -3.222419,-0.219566 -6.374578,-0.95474 -9.535968,-1.571635 -3.204273,-0.478447 -6.352353,-1.252817 -9.524069,-1.900781 -2.506016,-0.501296 -4.944251,-1.226769 -7.320173,-2.162453 -1.725873,-0.630204 -3.390452,-1.434076 -4.984384,-2.346218 -1.47619,-0.783831 -2.910099,-1.664445 -4.265015,-2.642843 -1.166033,-0.912788 -2.185019,-1.993671 -3.131791,-3.127339 -0.892037,-1.053473 -1.701943,-2.166198 -2.3094,-3.407663 -0.602291,-1.219119 -1.079972,-2.503037 -1.483621,-3.80099 -0.503677,-1.239756 -0.821843,-2.525158 -0.999063,-3.848116 -0.138361,-1.27349 -0.140868,-2.556179 -0.146334,-3.83556 0.08682,-1.336174 0.401094,-2.633207 0.855167,-3.888208 0.475253,-1.347777 1.147992,-2.603243 1.851409,-3.84156 0.725161,-1.272336 1.540136,-2.478066 2.515321,-3.570372 1.031051,-1.162297 2.231206,-2.148543 3.475634,-3.071279 1.377656,-0.967102 2.799957,-1.862905 4.213182,-2.775832 13.539257,-7.790982 0.974302,-0.60252 1.481043,-0.868497 1.606526,-0.843231 3.16059,-1.782932 4.748458,-2.660791 0.749227,-0.414213 1.553137,-0.71618 2.329134,-1.075038 1.601053,-0.824352 3.244562,-1.56312 4.93793,-2.176048 1.723989,-0.766136 3.531467,-1.282145 5.330856,-1.828787 1.788308,-0.558054 3.589267,-1.064399 5.404648,-1.528667 1.8775,-0.466362 3.75175,-0.881501 5.676224,-1.097767 2.877079,-0.16849 5.761165,-0.159007 8.642118,-0.166535 3.222165,-0.06774 6.43321,0.0044 9.633935,0.389952 1.913757,0.252373 3.850183,0.511589 5.713092,1.037172 0.02269,0.0064 2.194286,0.705132 2.264939,0.727859 1.916302,0.700877 3.849646,1.356461 5.715484,2.185642 1.777018,0.682707 3.426183,1.636004 5.08917,2.551337 1.614557,0.721037 3.083649,1.698405 4.4850642,2.766603 1.466602,0.971082 2.7536144,2.177574 4.0238426,3.38619 1.3596371,1.179579 2.4544588,2.589849 3.5486364,4.006304 0.95226999,1.314102 1.73146843,2.741356 2.52388124,4.155189 0.66539856,1.357618 1.29362506,2.736375 1.79909486,4.162203 0.5290486,1.367247 0.9948326,2.764232 1.3718682,4.18141 0.5369691,1.428892 0.7590691,2.93274 1.0610251,4.419143 0.2812224,1.458554 0.5972619,2.907523 0.9111069,4.359314 0.2879082,1.408246 0.6544482,2.793233 0.8648674,4.217382 0.1811957,1.36268 0.1935523,2.738758 0.2078822,4.110913 0.1059221,1.366575 -0.168653,2.701684 -0.3677023,4.044604 -0.2449441,1.389438 -0.6627691,2.734253 -1.041031,4.090063 -0.4275315,1.297012 -0.8186468,2.604347 -1.3270894,3.87274 -0.5500953,1.260396 -1.0861676,2.524741 -1.5954988,3.802603 -0.5062715,1.265037 -1.3234119,2.368542 -2.17751981,3.417795 -1.0228685,1.240053 -2.16070899,2.363604 -3.44513079,3.328859 -2.399312,1.838971 -5.1506502,2.883805 -7.797736,4.219065 -1.292407,0.59827 -2.571799,1.22384 -3.851,1.85099 -1.396242,0.55846 -2.800826,1.09587 -4.209432,1.62417 -1.450182,0.50814 -2.922629,0.93453 -4.393088,1.37909 -1.570643,0.34813 -3.126545,0.74979 -4.719447,0.98804 -1.148064,0.31628 -2.334088,0.42963 -3.502945,0.62836 -0.59033,0.10037 -1.17266,0.2432 -1.759785,0.36087 -1.783111,0.24553 -3.535966,0.65094 -5.317012,0.91068 -1.737474,0.23478 -3.455722,0.56666 -5.203763,0.73543 -0.869834,0.0142 -1.722669,0.19507 -2.577855,0.33417 l 3.71258,-2.78779 0,0 c 0.860155,-0.13351 1.721104,-0.27184 2.592119,-0.31305 1.741047,-0.19111 3.456791,-0.52743 5.192549,-0.75425 1.771938,-0.27627 3.526379,-0.65296 5.299142,-0.92466 1.756976,-0.34893 3.531202,-0.59465 5.281203,-0.98114 1.578104,-0.27048 3.135499,-0.65167 4.687052,-1.04323 1.464889,-0.44943 2.937935,-0.86954 4.374937,-1.40502 1.399543,-0.54007 2.817245,-1.04032 4.184766,-1.6578 1.2838175,-0.620545 2.5612479,-1.254395 3.8543369,-1.855479 1.7013891,-0.811512 6.93582893,-3.465059 -0.1773369,0.401946 1.3211972,-0.894267 2.4591061,-1.994901 3.4854284,-3.21542 0.8539463,-1.008238 1.6820413,-2.072763 2.2326383,-3.279234 0.49566564,-1.286713 1.03537544,-2.55202 1.59201192,-3.812513 C 0.72771654,87.411956 1.082774,86.109842 1.5382663,84.836161 1.8978722,83.490047 2.3413594,82.170182 2.6061343,80.798783 2.7830665,79.472738 3.1122548,78.164027 3.0055468,76.815952 2.9955035,75.462452 2.9825601,74.105585 2.8266829,72.75933 2.6341261,71.340634 2.2672742,69.967429 1.9809393,68.568133 1.6762406,67.113346 1.3398164,65.668427 1.0731543,64.205817 0.7526433,62.732151 0.57975742,61.223853 0.02162172,59.808165 -0.34560284,58.400879 -0.81384299,57.016789 -1.3355209,55.65996 -1.8172185,54.25294 -2.4494302,52.905431 -3.087849,51.563911 c -0.7741863,-1.397363 -1.553115,-2.797859 -2.4801014,-4.100662 -1.0788692,-1.399478 -2.1616827,-2.78687 -3.5085965,-3.946753 -1.2624101,-1.19425 -2.5494121,-2.369709 -3.9947801,-3.343015 -1.394818,-1.044102 -2.86483,-1.972604 -4.446374,-2.711688 -1.653654,-0.9061 -3.294257,-1.841396 -5.058996,-2.521217 -1.859527,-0.798957 -3.769308,-1.472076 -5.671866,-2.160229 -0.475485,-0.155474 -1.761057,-0.581696 -2.2297,-0.710551 -1.843635,-0.506915 -3.750461,-0.783285 -5.644131,-1.016132 -3.192823,-0.351146 -6.39383,-0.408794 -9.604353,-0.344982 -2.894124,0.01378 -5.79607,-0.0013 -8.680755,0.261196 -1.908947,0.245943 -3.772843,0.682966 -5.639143,1.148091 -1.808171,0.480218 -3.606652,0.987175 -5.39342,1.541542 -1.801144,0.534906 -3.580155,1.126258 -5.31429,1.85493 -1.680308,0.650612 -3.316599,1.400411 -4.926921,2.208747 -0.07541,0.034 -1.479427,0.666603 -1.555576,0.702909 -0.257305,0.122676 -1.006777,0.533363 -0.764541,0.383109 1.058105,-0.656319 4.307176,-2.499621 3.214446,-1.90273 -0.825274,0.450796 -9.68631,5.618524 -1.490946,0.84417 -0.711786,0.474519 -1.459244,0.891403 -2.171589,1.362587 -0.68459,0.452824 -1.318438,0.986479 -2.035825,1.391863 -1.266805,0.86663 -2.460575,1.852204 -3.506403,2.977725 -0.992956,1.059104 -1.839785,2.209222 -2.559292,3.473143 -0.683985,1.229926 -1.411955,2.438131 -1.873538,3.776937 -0.486959,1.197301 -0.779942,2.445294 -0.925158,3.730292 0.0028,1.262119 4.42e-4,2.526994 0.119181,3.784776 0.156249,1.300767 0.450113,2.566775 0.958563,3.779529 0.384346,1.278789 0.858954,2.540174 1.447528,3.738647 0.581471,1.213585 1.386805,2.284082 2.255286,3.30805 0.917656,1.108638 1.905319,2.162919 3.0558,3.035544 1.344772,0.965502 2.765558,1.82609 4.224545,2.608043 1.585126,0.88279 3.225231,1.674755 4.927746,2.305571 2.344607,0.913103 4.743709,1.640903 7.212388,2.141868 3.168552,0.65905 6.321496,1.402426 9.521953,1.89701 3.151946,0.62229 6.301124,1.31689 9.514585,1.536383 3.168155,0.325799 6.345352,0.551805 9.527872,0.681301 3.155004,-1.15e-4 6.310008,-1.53e-4 9.465011,-0.0026 2.713623,-0.0027 5.427245,-0.0069 8.140854,-0.01648 1.887979,-0.0044 3.776035,0.0038 5.663937,-0.01775 1.608141,-0.02661 3.220452,-0.05917 4.8169086,-0.273311 1.3787458,-0.201677 2.7457908,-0.476424 4.1388751,-0.566606 1.2738587,-0.194282 2.5146953,-0.535475 3.78766461,-0.732555 C 0.59080709,81.435508 1.7374155,81.125699 2.8889761,80.84847 3.3797795,80.678894 3.8740499,80.512104 4.3469066,80.295655 5.8505033,79.607386 8.1660552,78.069033 1.5910859,81.985603 2.9102827,81.232591 1.0154723,82.337884 2.2970928,81.510881 2.4186005,81.432471 2.5613443,81.390201 2.6813671,81.30954 3.0924327,81.033284 3.3759202,80.613992 3.7320104,80.278667 4.2768409,79.3874 4.5995886,78.401045 4.8020623,77.37867 c 0.2345715,-1.164396 0.031289,-2.378734 0.099957,-3.559881 8.263e-4,-1.267193 0.00239,-2.534385 0.00384,-3.801577 C 4.9062,68.709186 4.9085481,67.400866 4.870237,66.093263 4.8112058,64.498376 4.7000842,62.905643 4.4789271,61.324062 4.443519,61.05658 4.2963173,59.988761 4.2790726,59.69376 4.2190923,58.667695 4.3177298,57.632486 4.2439952,56.606041 4.18935,54.98925 4.091635,53.371866 3.8273961,51.773668 3.7763703,51.444457 3.6151365,50.433131 3.5832124,50.108606 3.4756602,49.015279 3.4794282,47.907202 3.2436356,46.827456 2.92469,45.156908 2.5619945,43.494792 2.2074858,41.831913 1.8096412,40.177689 1.5580013,38.492256 1.3506061,36.804813 1.0591972,35.099682 0.7229018,33.405645 0.49138109,31.69048 0.2272044,30.063172 0.16616032,28.397481 -0.34848419,26.815866 -0.75370539,25.364773 -1.0548471,23.885492 -1.4660296,22.435732 -1.9316242,21.060552 -2.4381254,19.701197 -2.9280327,18.334971 -3.4120727,17.062034 -3.8286096,15.759875 -4.4476151,14.541851 -5.1088039,13.305263 -5.7243038,12.038899 -6.5618266,10.906944 -7.4462605,9.8410217 -8.4340055,8.8916839 -9.6934041,8.273965 -10.962714,7.5445513 -12.306327,6.9591705 -13.659327,6.4029634 -15.054282,5.8932857 -16.4634,5.4283285 -17.924567,5.1442897 c -1.560581,-0.2952814 -3.137179,-0.4073593 -4.716252,-0.1687566 -1.894268,0.2122709 -3.782962,0.4649259 -5.694001,0.4534453 -2.806502,0.1671845 -5.604367,0.4740655 -8.361821,1.0369751 -3.169998,0.6094073 -6.355638,1.1352731 -9.516191,1.7940335 -3.202113,0.7813381 -6.35981,1.7211291 -9.510551,2.687198 -3.17899,1.049972 -6.386257,2.011699 -9.540928,3.134715 -3.166976,1.007055 -6.373194,1.888552 -9.50059,3.017941 -2.013733,0.701426 -3.968081,1.471135 -5.889119,2.400483 -0.437863,0.211826 -1.70718,0.927071 -1.303918,0.655091 0.874427,-0.589759 1.815162,-1.07468 2.722744,-1.61202 -1.976318,1.175778 -3.774312,2.590776 -5.571472,4.022161 -1.602973,1.289283 -3.231961,2.550464 -4.721835,3.973048 -1.476828,1.38585 -2.887853,2.844126 -4.223085,4.367106 -1.221064,1.478488 -2.305942,3.062744 -3.348247,4.671311 -1.112951,1.642093 -2.352094,3.203946 -3.284307,4.96369 -0.88312,1.643036 -1.66867,3.343253 -2.39269,5.06136 -0.73529,1.637513 -1.2318,3.361695 -1.74764,5.077972 -0.45659,1.729741 -1.09105,3.425845 -1.25456,5.219243 -0.17036,1.675425 -0.0575,3.36387 -0.0881,5.045988 0.0132,1.623417 0.0192,3.251431 0.20624,4.86633 0.2188,1.567117 0.63318,3.07671 1.0517,4.599722 0.38489,1.407045 0.75914,2.818703 1.04054,4.250277 0.29088,1.210533 0.64372,2.415892 1.08563,3.578678 0.17683,0.401254 0.32467,0.815147 0.50904,1.212993 0.40164,0.8667 1.01335,1.599737 1.59504,2.348145 0.935539,1.086844 2.074526,1.839579 3.447355,2.281098 1.373025,0.505872 2.794079,0.839175 4.269304,0.756855 1.56703,-0.01128 3.137633,-0.03024 4.696273,-0.209897 1.674003,-0.227101 3.302726,-0.636838 4.93302,-1.074756 1.807037,-0.549917 3.565457,-1.243312 5.348569,-1.864581 1.925786,-0.711213 3.851022,-1.428769 5.693727,-2.340452 1.882459,-0.940584 3.765386,-1.876919 5.62717,-2.858272 -1.014405,0.60002 -4.07322,2.372884 -3.043214,1.800059 1.634192,-0.908835 3.23598,-1.874758 4.856176,-2.808315 0.2986,-0.172053 0.599841,-0.339483 0.900175,-0.508491 0.299002,-0.168259 1.193233,-0.677812 0.897832,-0.503307 -1.005666,0.594084 -2.012309,1.186754 -3.028788,1.762143 -0.324236,0.183537 0.634401,-0.390887 0.951602,-0.58633 1.923046,-1.157913 3.92111,-2.209186 5.728251,-3.545409 1.871243,-1.377414 3.786454,-2.694104 5.622167,-4.1192 1.784115,-1.436869 3.506036,-2.947869 5.19396,-4.496446 1.653244,-1.514013 3.189258,-3.146051 4.74811,-4.755801 1.468578,-1.610038 2.95159,-3.209348 4.310082,-4.915448 1.325335,-1.678403 2.607417,-3.385692 3.828004,-5.142498 1.136629,-1.599885 2.218309,-3.243061 3.117812,-4.990133 0.451234,-0.841328 0.949964,-1.658438 1.376785,-2.512576 0.44448,-0.889477 0.371677,-0.839838 0.79771,-1.733551 0.135837,-0.284953 0.283487,-0.564123 0.42523,-0.846184 0.716218,-1.660215 1.431472,-3.319367 1.938597,-5.057984 0.462467,-1.631563 0.947144,-3.260664 1.313524,-4.915962 0.157875,-0.808276 0.252796,-1.6147 0.362995,-2.430537 0.04119,-0.304936 0.178634,-1.292257 0.194842,-1.606217 0.01429,-0.276817 -0.0017,-0.554369 -0.0025,-0.831553 -0.0085,-1.635676 -0.02204,-3.27393 -0.167391,-4.904332 -0.168668,-1.56164 -0.502962,-3.086826 -0.769549,-4.631957 -0.281885,-1.434853 -0.747066,-2.818155 -1.114346,-4.2318572 -0.219588,-0.6926603 -0.383793,-1.3997975 -0.62739,-2.0846998 -0.266551,-0.7494427 -0.28539,-0.7043839 -0.582171,-1.4491241 -0.09238,-0.2318089 -0.176337,-0.4668837 -0.264505,-0.7003255 -0.572646,-1.40916 -1.138957,-2.8183943 -1.730299,-4.220106 -0.608555,-1.28357589 -1.259799,-2.5488923 -1.944588,-3.7930863 -0.690018,-1.257842 -1.481969,-2.4740201 -2.531076,-3.4650637 -1.11053,-1.0472351 -2.37677,-1.8932956 -3.632421,-2.7564971 -1.358012,-0.8367001 -2.721591,-1.6635043 -4.172877,-2.3320403 -1.55772,-0.673015 -3.131858,-1.315629 -4.762851,-1.791605 -1.770488,-0.510731 -3.578939,-0.858986 -5.432503,-0.783199 -2.625382,-0.0114 -5.250964,-0.03156 -7.876269,10e-4 -3.174042,0.05371 -6.355111,0.134381 -9.504922,0.56501 -3.182953,0.469604 -6.343918,1.075323 -9.513268,1.627642 -3.199701,0.690441 -6.381165,1.4699552 -9.521208,2.3969157 -3.203969,0.88681 -6.398174,1.8207685 -9.531991,2.9336126 -3.068175,1.0473675 -6.175025,2.0115873 -9.089295,3.4532194 -1.30056,0.6271085 -5.87856,3.12008403 0.21461,-0.3412883 0.3492,-0.1983742 -0.68909,0.413007 -1.0267,0.6305224 -0.32142,0.2070847 -0.63383,0.4278388 -0.94993,0.6429661 -0.31607,0.2151036 -0.63103,0.431815 -0.94655,0.64772246 -1.86046,1.29314104 -3.70834,2.60849504 -5.44643,4.06468144 -1.6327,1.3670934 -3.29186,2.7058719 -4.82126,4.1908333 -1.48053,1.4883215 -2.89816,3.0268129 -4.1587,4.7097969 -1.24327,1.633915 -2.43084,3.316251 -3.4561,5.097051 -0.8003,1.476913 -1.50574,3.028753 -1.96145,4.647967 -0.47381,1.499574 -0.87312,3.039344 -1.01025,4.609406 -6e-5,1.586294 -0.005,3.172584 -0.008,4.758874 7.9e-4,1.574666 -0.008,3.150423 0.0708,4.723631 0.10878,1.617983 0.31028,3.228526 0.79761,4.782478 0.46413,1.556854 0.87097,3.130694 1.42546,4.65998 0.56025,1.538838 0.99092,3.118863 1.55258,4.657256 0.47113,1.55085 0.96658,3.092404 1.46524,4.633797 0.4953,1.544865 0.89946,3.122057 1.53058,4.621193 0.69466,1.614689 1.33141,3.253958 1.96004,4.895015 0.65547,1.618819 1.23314,3.26688 1.83008,4.907855 l -4.10819,2.294118 z"
     inkscape:connector-curvature="0"
     sodipodi:nodetypes="ccccccccccccccccccccccccccccccccccccccccccccssssccccccccsccccccccccccccscccccccccccccccccccccsccccccccccsccccccccccccccccccccccssccccccccccccccccccccccccccccccccscccccccccccccccccccccccccccccccccscccccccssscscccccccccccccccccccccccsccsccccccsccscccccccccccccccccccssccccccccccccccsccccccccsssssccccccccsscccssccccscccccccccccccccssscccccccccccccccccc" />
  <path
     style="fill:#916f6f;fill-opacity:1;fill-rule:evenodd;stroke:#bf3268;stroke-width:2.5;stroke-linecap:round;stroke-linejoin:miter;stroke-miterlimit:4;stroke-dasharray:none;stroke-opacity:1"
     d="m 2.6093826,58.809314 163.4090674,0"
     id="path3450"
     inkscape:connector-curvature="0" />
  <path
     style="fill:none;fill-rule:evenodd;stroke:#bf3268;stroke-width:2.5;stroke-linecap:round;stroke-linejoin:miter;stroke-miterlimit:4;stroke-dasharray:none;stroke-opacity:1"
     d="m 187.42662,98.595382 -184.7330638,0"
     id="path3452"
     inkscape:connector-curvature="0" />
  <path
     style="fill:none;fill-rule:evenodd;stroke:#bf3268;stroke-width:2.5;stroke-linecap:round;stroke-linejoin:miter;stroke-miterlimit:4;stroke-dasharray:none;stroke-opacity:1"
     d="m 3.8158712,156.0018 270.2534688,0"
     id="path3454"
     inkscape:connector-curvature="0" />
  <path
     style="fill:none;fill-rule:evenodd;stroke:#bf3268;stroke-width:2.5;stroke-linecap:round;stroke-linejoin:round;stroke-miterlimit:4;stroke-dasharray:none;stroke-opacity:1"
     d="m 273.897,128.02328 0,13.69224 -49.60632,0 59.70716,-41.07673 0,81.25561 -280.8032301,0"
     id="path3456"
     inkscape:connector-curvature="0" />
  <path
     style="fill:none;fill-rule:evenodd;stroke:#bf3268;stroke-width:1.89999998;stroke-linecap:round;stroke-linejoin:miter;stroke-miterlimit:4;stroke-dasharray:none;stroke-opacity:1"
     d="m 210.46182,12.87388 61.90053,11.427791"
     id="path4328"
     inkscape:connector-curvature="0" />
  <g
     id="g4461"
     transform="translate(0,3.8964844e-6)">
    <path
       inkscape:connector-curvature="0"
       id="path4330"
       d="m 7.743974,162.62345 21.267871,0 5.527402,5.52741 -22.08155,0 z"
       style="fill:none;fill-rule:evenodd;stroke:#a4a359;stroke-width:1px;stroke-linecap:butt;stroke-linejoin:miter;stroke-opacity:1" />
    <path
       inkscape:connector-curvature="0"
       id="path4334"
       d="m 35.184578,171.93867 -24.466469,0 -4.7698391,-6.0605"
       style="fill:none;fill-rule:evenodd;stroke:#a4a359;stroke-width:1px;stroke-linecap:butt;stroke-linejoin:miter;stroke-opacity:1" />
    <path
       inkscape:connector-curvature="0"
       id="path4351"
       d="m 35.072346,174.80057 -25.5326678,0 -4.3209131,-5.33099"
       style="fill:none;fill-rule:evenodd;stroke:#a4a359;stroke-width:1px;stroke-linecap:butt;stroke-linejoin:miter;stroke-opacity:1" />
  </g>
  <text
     xml:space="preserve"
     style="font-style:normal;font-variant:normal;font-weight:bold;font-stretch:normal;font-size:18.90671539px;line-height:125%;font-family:Arial;-inkscape-font-specification:'Arial, Bold';text-align:start;letter-spacing:0px;word-spacing:0px;writing-mode:lr-tb;text-anchor:start;fill:#8abbdb;fill-opacity:1;stroke:none;stroke-width:1px;stroke-linecap:butt;stroke-linejoin:miter;stroke-opacity:1"
     x="8.4510403"
     y="28.165697"
     id="text4357"
     sodipodi:linespacing="125%"
     transform="scale(1.045555,0.95642984)"><tspan
       sodipodi:role="line"
       id="tspan4367"
       x="8.4510403"
       y="28.165697">Pierres aux milles</tspan><tspan
       sodipodi:role="line"
       id="tspan4369"
       x="8.4510403"
       y="51.799091">vertus</tspan></text>
  <g
     id="g4450"
     transform="translate(0,3.8964844e-6)">
    <path
       sodipodi:nodetypes="ccsccsccc"
       inkscape:connector-curvature="0"
       id="path4355"
       d="m 268.97244,92.029835 -42.19905,28.619035 c 0,0 -6.0605,4.04033 -9.87637,-1.23455 -3.81587,-5.27488 -34.11839,-51.065333 -34.11839,-51.065333 l 90.00968,17.508115 c 0,0 7.51951,1.907936 5.49934,-4.040334 -2.02017,-5.94827 -13.24331,-27.721183 -13.24331,-27.721183 L 206.45948,42.199046 185.24773,61.053939"
       style="fill:none;fill-rule:evenodd;stroke:#8abbdb;stroke-width:4.80000019;stroke-linecap:round;stroke-linejoin:round;stroke-miterlimit:4;stroke-dasharray:none;stroke-opacity:1" />
    <path
       inkscape:connector-curvature="0"
       id="path4371"
       d="M 175.19338,69.134608 216.04565,128.954 c 0,0 3.14248,3.70364 7.29505,0.89785 4.15257,-2.80578 58.13592,-39.168793 58.13592,-39.168793 0,0 4.48926,-2.693556 3.03025,-7.182816 -1.45901,-4.489261 -13.58001,-30.414739 -13.58001,-30.414739 0,0 -1.45901,-3.70364 -5.72381,-4.938186 -4.26479,-1.234547 -53.98335,-10.661993 -53.98335,-10.661993 0,0 -4.71373,-1.010084 -8.08067,0.561157 -3.36695,1.571241 -27.38449,24.354237 -27.38449,24.354237 0,0 -2.46909,2.020167 -0.56116,6.733891 z"
       style="fill:none;fill-rule:evenodd;stroke:#8abbdb;stroke-width:1px;stroke-linecap:butt;stroke-linejoin:miter;stroke-opacity:1" />
    <path
       sodipodi:nodetypes="ccccc"
       inkscape:connector-curvature="0"
       id="path4375"
       d="m 214.4298,74.218894 21.34775,-25.79189 9.4438,31.664504 -23.84875,40.719482 z"
       style="fill:none;fill-rule:evenodd;stroke:#8abbdb;stroke-width:2.20000005;stroke-linecap:butt;stroke-linejoin:round;stroke-miterlimit:4;stroke-dasharray:none;stroke-opacity:1" />
    <path
       inkscape:connector-curvature="0"
       id="path4377"
       d="m 196.18068,63.186338 13.46778,-12.906624 13.24331,2.693557 -9.87637,12.457697 -13.24332,-1.795704"
       style="fill:none;fill-rule:evenodd;stroke:#8abbdb;stroke-width:1.5;stroke-linecap:round;stroke-linejoin:round;stroke-miterlimit:4;stroke-dasharray:none;stroke-opacity:1" />
    <path
       inkscape:connector-curvature="0"
       id="path4394"
       d="m 263.07065,76.541887 -12.34546,-2.918019 -4.48926,-15.487948 13.01885,1.683473 7.18282,16.722494"
       style="fill:none;fill-rule:evenodd;stroke:#8abbdb;stroke-width:1.5;stroke-linecap:round;stroke-linejoin:round;stroke-miterlimit:4;stroke-dasharray:none;stroke-opacity:1" />
    <path
       inkscape:connector-curvature="0"
       id="path4396"
       d="m 233.21707,70.593617 -7.40728,-1.122315 7.18282,-9.539678 3.9281,10.886456"
       style="fill:none;fill-rule:evenodd;stroke:#8abbdb;stroke-width:1.5;stroke-linecap:round;stroke-linejoin:round;stroke-miterlimit:4;stroke-dasharray:none;stroke-opacity:1" />
    <path
       inkscape:connector-curvature="0"
       id="path4398"
       d="m 195.95621,78.22536 13.69225,2.581325 3.81587,21.323985 -13.13109,-17.95704 4.93819,0.112231"
       style="fill:none;fill-rule:evenodd;stroke:#8abbdb;stroke-width:1.5;stroke-linecap:round;stroke-linejoin:round;stroke-miterlimit:4;stroke-dasharray:none;stroke-opacity:1" />
    <path
       inkscape:connector-curvature="0"
       id="path4400"
       d="m 224.79971,83.612472 9.87637,2.132399 -9.31521,16.834729 -4.2648,-19.416054"
       style="fill:none;fill-rule:evenodd;stroke:#8abbdb;stroke-width:1.5;stroke-linecap:round;stroke-linejoin:round;stroke-miterlimit:4;stroke-dasharray:none;stroke-opacity:1" />
    <path
       inkscape:connector-curvature="0"
       id="path4402"
       d="m 260.48933,91.131983 -13.58001,-2.918019 -12.4577,18.630426 19.19159,-12.23323 -4.48926,-1.234547"
       style="fill:none;fill-rule:evenodd;stroke:#8abbdb;stroke-width:1.5;stroke-linecap:round;stroke-linejoin:round;stroke-miterlimit:4;stroke-dasharray:none;stroke-opacity:1" />
  </g>
  <text
     xml:space="preserve"
     style="font-style:normal;font-variant:normal;font-weight:normal;font-stretch:normal;font-size:10.51112366px;line-height:125%;font-family:Arial;-inkscape-font-specification:'Arial, Normal';text-align:start;letter-spacing:0px;word-spacing:0px;writing-mode:lr-tb;text-anchor:start;fill:#ffffff;fill-opacity:1;stroke:none;stroke-width:1px;stroke-linecap:butt;stroke-linejoin:miter;stroke-opacity:1"
     x="8.56493"
     y="69.618172"
     id="text4404"
     sodipodi:linespacing="125%"
     transform="scale(1.0148581,0.98535943)"><tspan
       sodipodi:role="line"
       id="tspan4406"
       x="8.56493"
       y="69.618172"
       style="font-style:normal;font-variant:normal;font-weight:bold;font-stretch:normal;font-size:10.51112366px;line-height:125%;font-family:Arial;-inkscape-font-specification:'Arial, Bold';text-align:start;writing-mode:lr-tb;text-anchor:start;fill:#ffffff;fill-opacity:1">Bracelets, pendentifs,</tspan><tspan
       sodipodi:role="line"
       x="8.56493"
       y="82.75708"
       id="tspan4408"
       style="font-style:normal;font-variant:normal;font-weight:bold;font-stretch:normal;font-size:10.51112366px;line-height:125%;font-family:Arial;-inkscape-font-specification:'Arial, Bold';text-align:start;writing-mode:lr-tb;text-anchor:start;fill:#ffffff;fill-opacity:1">anti stress, grossesse,</tspan><tspan
       sodipodi:role="line"
       x="8.56493"
       y="95.895981"
       id="tspan4410"
       style="font-style:normal;font-variant:normal;font-weight:bold;font-stretch:normal;font-size:10.51112366px;line-height:125%;font-family:Arial;-inkscape-font-specification:'Arial, Bold';text-align:start;writing-mode:lr-tb;text-anchor:start;fill:#ffffff;fill-opacity:1">sommeil, mnopause...</tspan></text>
  <text
     xml:space="preserve"
     style="font-style:normal;font-variant:normal;font-weight:bold;font-stretch:normal;font-size:11.46051311px;line-height:125%;font-family:Arial;-inkscape-font-specification:'Arial, Bold';text-align:start;letter-spacing:0px;word-spacing:0px;writing-mode:lr-tb;text-anchor:start;fill:#ffffff;fill-opacity:1;stroke:none;stroke-width:1px;stroke-linecap:butt;stroke-linejoin:miter;stroke-opacity:1"
     x="43.868797"
     y="160.19252"
     id="text4412"
     sodipodi:linespacing="125%"
     transform="scale(0.92368573,1.0826193)"><tspan
       sodipodi:role="line"
       id="tspan4414"
       x="43.868797"
       y="160.19252"
       style="font-style:normal;font-variant:normal;font-weight:bold;font-stretch:normal;font-size:11.46051311px;line-height:125%;font-family:Arial;-inkscape-font-specification:'Arial, Bold';text-align:start;writing-mode:lr-tb;text-anchor:start;fill:#ffffff;fill-opacity:1">Facebook : Pierres aux milles vertus</tspan></text>
  <text
     xml:space="preserve"
     style="font-style:italic;font-variant:normal;font-weight:500;font-stretch:normal;font-size:15.74354458px;line-height:125%;font-family:'URW Chancery L';-inkscape-font-specification:'URW Chancery L, Medium Italic';text-align:start;letter-spacing:0px;word-spacing:0px;writing-mode:lr-tb;text-anchor:start;fill:#ffffff;fill-opacity:1;stroke:none;stroke-width:1px;stroke-linecap:butt;stroke-linejoin:miter;stroke-opacity:1"
     x="8.0981359"
     y="115.34939"
     id="text4418"
     sodipodi:linespacing="125%"
     transform="scale(1.0282661,0.9725109)"><tspan
       sodipodi:role="line"
       id="tspan4422"
       x="8.0981359"
       y="115.34939">13 Rue du pr Martin</tspan><tspan
       sodipodi:role="line"
       id="tspan4424"
       x="8.0981359"
       y="135.02881">Rupt sur Moselle</tspan></text>
  <text
     xml:space="preserve"
     style="font-style:normal;font-variant:normal;font-weight:bold;font-stretch:normal;font-size:10.71114826px;line-height:125%;font-family:Arial;-inkscape-font-specification:'Arial, Bold';text-align:start;letter-spacing:0px;word-spacing:0px;writing-mode:lr-tb;text-anchor:start;fill:#ffffff;fill-opacity:1;stroke:none;stroke-width:1px;stroke-linecap:butt;stroke-linejoin:miter;stroke-opacity:1"
     x="7.898725"
     y="153.50066"
     id="text4412-7"
     sodipodi:linespacing="125%"
     transform="scale(1.032935,0.96811513)"><tspan
       sodipodi:role="line"
       id="tspan4448"
       x="7.898725"
       y="153.50066">Mail : pamv88@orange.fr</tspan></text>
</svg>
