<svg xmlns="http://www.w3.org/2000/svg" style="display: none;"><symbol id="quality" viewBox="0 0 512 512"><g> <g> <path d="M448.48,217.68l-0.022-0.033c-0.013-0.019-0.025-0.038-0.038-0.057l-59.856-89.785c-0.04-0.061-0.083-0.121-0.124-0.182 c-2.734-4.06-7.32-6.623-12.537-6.623H136.097c-0.014,0-0.027,0-0.041,0H136c-4.967,0-9.662,2.497-12.44,6.623 c-0.041,0.061-0.084,0.12-0.124,0.182L63.58,217.589c-0.013,0.019-0.025,0.038-0.038,0.057l-0.022,0.033 c-3.666,5.499-3.3,12.844,0.999,17.964c0.032,0.039,0.06,0.08,0.093,0.118l180,210c0.052,0.06,0.111,0.112,0.163,0.171 c6.017,6.794,16.515,6.702,22.451,0c0.052-0.059,0.112-0.111,0.163-0.171l180-210c0.033-0.038,0.06-0.079,0.093-0.118 C451.775,230.531,452.151,223.185,448.48,217.68z M347.972,151L316,198.958L284.027,151H347.972z M287.973,211h-63.946 L256,163.042L287.973,211z M227.972,151L196,198.958L164.027,151H227.972z M136,163.041L167.973,211h-63.945L136,163.041z M108.614,241h76.072l38.036,133.126L108.614,241z M256,381.399L215.886,241h80.228L256,381.399z M289.278,374.126L327.314,241 h76.072L289.278,374.126z M344.027,211L376,163.041L407.972,211H344.027z"/> </g> </g><g> <g> <path d="M256,0C115.031,0,0,115.049,0,256c0,140.97,115.049,256,256,256c140.969,0,256-115.049,256-256 C512,115.03,396.951,0,256,0z M256,482C131.383,482,30,380.617,30,256S131.383,30,256,30s226,101.383,226,226S380.617,482,256,482 z"/> </g> </g></symbol><symbol id="nature" viewBox="0 0 512 512"><title>nature</title><circle style="fill:#E6F3FF;" cx="256" cy="256" r="256"/><path style="fill:#CFDBE6;" d="M509.211,293.84L407.604,192.233l-25.255,59.801l-99.981-99.981l-82.76,108.349l-95.997,90.172 l161.258,161.258C389.392,507.589,491.344,414.427,509.211,293.84z"/><path style="fill:#A03D50;" d="M337.594,265.388c-41.753,0-78.419,21.688-99.416,54.396c20.999,32.706,57.663,54.396,99.416,54.396 s78.419-21.688,99.416-54.396C416.011,287.079,379.347,265.388,337.594,265.388z"/><path style="fill:#C75163;" d="M174.406,265.388c41.753,0,78.419,21.688,99.416,54.396c-20.999,32.706-57.663,54.396-99.416,54.396 s-78.419-21.688-99.416-54.396C95.989,287.079,132.653,265.388,174.406,265.388z"/><path style="fill:#FF6472;" d="M290.404,226.513c-31.815,31.808-43.225,76.266-34.304,117.186 c40.922,8.928,85.385-2.474,117.2-34.28s43.225-76.266,34.304-117.186C366.682,183.303,322.219,194.705,290.404,226.513z"/><path style="fill:#FF80AA;" d="M221.596,226.513c31.815,31.808,43.225,76.266,34.304,117.186 c-40.922,8.928-85.385-2.474-117.2-34.28s-43.225-76.266-34.304-117.186C145.318,183.303,189.781,194.705,221.596,226.513z"/><path style="fill:#FF6472;" d="M197.387,236.654c0,44.991,23.371,84.497,58.613,107.124c35.242-22.626,58.613-62.133,58.613-107.124 S291.242,152.157,256,129.531C220.758,152.157,197.387,191.664,197.387,236.654z"/><path style="fill:#C75163;" d="M314.613,236.654c0-44.99-23.371-84.497-58.613-107.124v214.245 C291.242,321.152,314.613,281.645,314.613,236.654z"/></symbol></svg>